<svg width="21" height="21" viewBox="0 0 21 21" fill="none" xmlns="http://www.w3.org/2000/svg">
<path d="M1.34437 10.3443C1.20399 10.2038 1.12509 10.0133 1.125 9.81463V1.125H9.81463C10.0133 1.12509 10.2038 1.20399 10.3443 1.34437L19.6555 10.6556C19.796 10.7962 19.875 10.9869 19.875 11.1857C19.875 11.3845 19.796 11.5752 19.6555 11.7159L11.7187 19.6555C11.578 19.796 11.3874 19.875 11.1885 19.875C10.9897 19.875 10.799 19.796 10.6584 19.6555L1.34437 10.3443Z" stroke="#622F60" stroke-width="1.19999" stroke-linecap="round" stroke-linejoin="round"/>
<path d="M5.77499 5.24999C5.77499 5.53994 5.53994 5.77499 5.24999 5.77499C4.96005 5.77499 4.725 5.53994 4.725 5.24999C4.725 4.96005 4.96005 4.725 5.24999 4.725C5.53994 4.725 5.77499 4.96005 5.77499 5.24999Z" fill="#622F60" stroke="#622F60" stroke-width="1.19999"/>
</svg>
