<svg width="16" height="16" viewBox="0 0 16 16" fill="none" xmlns="http://www.w3.org/2000/svg">
<path d="M14.8998 13.4998C15.0998 13.6998 15.1998 13.8998 15.1998 14.1998C15.1998 14.4998 15.0998 14.6998 14.8998 14.8998C14.6998 15.0998 14.4998 15.1998 14.1998 15.1998C13.8998 15.1998 13.6998 15.0998 13.4998 14.8998L7.9998 9.3998L2.4998 14.8998C2.2998 15.0998 2.0998 15.1998 1.7998 15.1998C1.4998 15.1998 1.2998 15.0998 1.0998 14.8998C0.899804 14.6998 0.799805 14.4998 0.799805 14.1998C0.799805 13.8998 0.899804 13.6998 1.0998 13.4998L6.5998 7.9998L1.0998 2.4998C0.999804 2.2998 0.899805 2.0998 0.899805 1.7998C0.899805 1.4998 0.999804 1.2998 1.1998 1.0998C1.5998 0.699805 2.1998 0.699805 2.5998 1.0998L8.0998 6.59981L13.5998 1.0998C13.7998 0.899805 13.9998 0.799805 14.2998 0.799805C14.5998 0.799805 14.7998 0.899805 14.9998 1.0998C15.1998 1.2998 15.2998 1.4998 15.2998 1.7998C15.2998 2.0998 14.9998 2.2998 14.8998 2.4998L9.3998 7.9998L14.8998 13.4998Z" fill="#342E34"/>
</svg>
